# xmcd
#
# Track frame offsets: 
#        150
#        16069
#        34718
#        47506
#        66397
#        87376
#        103844
#        119851
#        134206
#        149855
#        165067
#        184068
#        196490
#
# Disc length: 2834 seconds
#
# Revision: 1
# Processed by: cddbd v1.5.2PL0 Copyright (c) Steve Scherf et al.
# Submitted via: ExactAudioCopy v1.0b4
#
DISCID=c30b100d
DTITLE=Dennis Gruenling featuring Doug Deming and The Jewel Tones - Read
DTITLE=y Or Not
DYEAR=2016
DGENRE=Blues
TTITLE0=Knockin' My Knees
TTITLE1=Missing Person
TTITLE2=Ready Or Not
TTITLE3=Simmer Down
TTITLE4=Little Sugar
TTITLE5=If You Wanna Rock (You Gotta Have That Roll)
TTITLE6=Ready To Burn
TTITLE7=Rockin' With The Rev
TTITLE8=Won't You Come Back
TTITLE9=Open The Door
TTITLE10=Think Twice
TTITLE11=Give Me Back My Heart
TTITLE12=Count Chromatic
EXTD=
EXTT0=
EXTT1=
EXTT2=
EXTT3=
EXTT4=
EXTT5=
EXTT6=
EXTT7=
EXTT8=
EXTT9=
EXTT10=
EXTT11=
EXTT12=
PLAYORDER=
